<svg width="40" height="40" viewBox="0 0 40 40" fill="none" xmlns="http://www.w3.org/2000/svg">
<g clip-path="url(#clip0_17968_5245)">
<path fill-rule="evenodd" clip-rule="evenodd" d="M25.4457 21.9462C26.8314 22.0605 28.2114 22.6776 29.5085 23.8233C30.8257 22.709 32.2171 22.1119 33.6028 22.0176C34.4203 21.9646 35.2396 22.0885 36.0048 22.3809C36.7701 22.6733 37.4632 23.1273 38.0371 23.7119C40.1857 25.849 40.8771 29.7805 38.0857 32.4719L38.0571 32.5005L30.4485 39.4148C30.1855 39.6541 29.8427 39.7867 29.4871 39.7867C29.1315 39.7867 28.7887 39.6541 28.5257 39.4148L20.92 32.5005C20.9034 32.4857 20.8872 32.4704 20.8714 32.4548C18.0999 29.6976 18.8228 25.7462 20.9914 23.609C21.5687 23.0252 22.2662 22.5741 23.0353 22.287C23.8045 21.9998 24.627 21.8835 25.4457 21.9462Z" fill="#3197A5"/>
<path opacity="0.5" fill-rule="evenodd" clip-rule="evenodd" d="M25.3428 2.85564C25.7141 2.86008 26.0778 2.96091 26.3984 3.14823C26.7189 3.33556 26.9853 3.60295 27.1714 3.92421L32.9571 13.9242C33.098 14.1679 33.1895 14.437 33.2264 14.716C33.2633 14.9951 33.2449 15.2787 33.1722 15.5506C33.0995 15.8226 32.974 16.0775 32.8028 16.301C32.6315 16.5244 32.418 16.7119 32.1743 16.8528C31.9306 16.9937 31.6615 17.0852 31.3825 17.1221C31.1034 17.159 30.8198 17.1406 30.5479 17.0679C30.2759 16.9952 30.021 16.8696 29.7975 16.6984C29.5741 16.5272 29.3866 16.3136 29.2457 16.0699L25.2628 9.18421L14.1228 27.3699C13.9346 27.6772 13.6719 27.932 13.359 28.1108C13.0462 28.2896 12.6933 28.3867 12.333 28.3929C11.9727 28.3992 11.6166 28.3145 11.2977 28.1467C10.9788 27.9789 10.7074 27.7333 10.5086 27.4328L5.35714 19.6414H2.17142C1.6031 19.6414 1.05806 19.4156 0.656193 19.0137C0.254329 18.6119 0.0285645 18.0668 0.0285645 17.4985C0.0285645 16.9302 0.254329 16.3851 0.656193 15.9833C1.05806 15.5814 1.6031 15.3556 2.17142 15.3556H6.50856C6.86281 15.3554 7.21161 15.4429 7.52374 15.6104C7.83587 15.778 8.10159 16.0203 8.29714 16.3156L12.2257 22.2585L23.4886 3.8785C23.6826 3.56199 23.9555 3.30131 24.2805 3.122C24.6056 2.9427 24.9716 2.85091 25.3428 2.85564Z" fill="#3197A5"/>
</g>
<defs>
<clipPath id="clip0_17968_5245">
<rect width="40" height="40" fill="white"/>
</clipPath>
</defs>
</svg>
