<svg width="40" height="40" viewBox="0 0 40 40" fill="none" xmlns="http://www.w3.org/2000/svg">
<g clip-path="url(#clip0_17948_9289)">
<path opacity="0.5" fill-rule="evenodd" clip-rule="evenodd" d="M28.3772 2.18855C24.4272 -0.0252272 19.7618 -0.58634 15.3996 0.627716C11.0373 1.84177 7.3326 4.73238 5.09421 8.66844C2.85581 12.6045 2.26557 17.2663 3.45237 21.636C4.63916 26.0058 7.50658 29.7285 11.4286 31.9914V38.5714C11.4286 38.9503 11.5791 39.3136 11.847 39.5816C12.1149 39.8495 12.4783 40 12.8572 40H27.1429C27.5218 40 27.8851 39.8495 28.153 39.5816C28.4209 39.3136 28.5714 38.9503 28.5714 38.5714V32.8571H32.8572C33.9938 32.8571 35.0839 32.4056 35.8876 31.6019C36.6913 30.7981 37.1429 29.708 37.1429 28.5714V17.1428C37.1425 14.0961 36.3301 11.1046 34.7894 8.47614C33.2487 5.84771 31.0353 3.67737 28.3772 2.18855Z" fill="#3197A5"/>
<path d="M14.9286 7.67044C12.7496 8.92958 11.0805 10.9123 10.2115 13.2742C9.34239 15.6361 9.32825 18.2278 10.1715 20.599C10.5658 21.7076 11.7629 22.2647 12.9001 21.9619C18.6572 20.4362 24.5201 16.3133 28.0801 13.0962C29.0229 12.2419 29.2201 10.819 28.3801 9.86758C26.736 8.00521 24.4985 6.76871 22.0468 6.36774C19.5952 5.96677 17.0803 6.42887 14.9286 7.67044Z" fill="#3197A5"/>
</g>
<defs>
<clipPath id="clip0_17948_9289">
<rect width="40" height="40" fill="white"/>
</clipPath>
</defs>
</svg>
