<svg width="40" height="40" viewBox="0 0 40 40" fill="none" xmlns="http://www.w3.org/2000/svg">
<g clip-path="url(#clip0_17968_5250)">
<path opacity="0.5" fill-rule="evenodd" clip-rule="evenodd" d="M11.9774 15.7617C10.1214 15.7617 8.33607 16.4741 6.98978 17.7518C6.32124 18.3867 5.78858 19.1512 5.42481 19.9984C5.06101 20.8455 4.87341 21.7579 4.87341 22.6798C4.87341 23.6018 5.06101 24.5141 5.42481 25.3613C5.78744 26.2057 6.31758 26.9678 6.98316 27.6015L19.0043 39.2855C19.5587 39.8243 20.4412 39.8243 20.9956 39.2855L33.0169 27.6015C33.6823 26.9679 34.2126 26.2057 34.5752 25.3613C34.9389 24.5141 35.1266 23.6018 35.1266 22.6798C35.1266 21.7579 34.9389 20.8455 34.5752 19.9984C34.2114 19.1512 33.6789 18.3869 33.0103 17.7521C31.664 16.4743 29.8786 15.7617 28.0225 15.7617C26.1664 15.7617 24.3811 16.4741 23.0348 17.7518L23.0081 17.7778L20 20.786L16.9918 17.7778L16.9651 17.7518C15.6188 16.4741 13.8336 15.7617 11.9774 15.7617Z" fill="#3197A5"/>
<path fill-rule="evenodd" clip-rule="evenodd" d="M20.0001 0.304688C16.3469 0.304688 13.3854 3.2662 13.3854 6.9194C13.3854 10.5726 16.3469 13.5341 20.0001 13.5341C23.6533 13.5341 26.6148 10.5726 26.6148 6.9194C26.6148 3.2662 23.6533 0.304688 20.0001 0.304688Z" fill="#3197A5"/>
</g>
<defs>
<clipPath id="clip0_17968_5250">
<rect width="40" height="40" fill="white"/>
</clipPath>
</defs>
</svg>
