<svg width="40" height="40" viewBox="0 0 40 40" fill="none" xmlns="http://www.w3.org/2000/svg">
<path opacity="0.5" fill-rule="evenodd" clip-rule="evenodd" d="M22.7199 2.00827C21.9548 1.35018 20.9791 0.988281 19.9699 0.988281C18.9608 0.988281 17.985 1.35018 17.2199 2.00827C16.665 2.48523 16.1136 2.9662 15.5657 3.45113C14.8514 3.30827 14.1342 3.16541 13.4114 3.02827C12.4196 2.84105 11.3936 3.01574 10.5196 3.5206C9.64568 4.02546 8.98179 4.82702 8.64851 5.7797C8.4028 6.4797 8.1628 7.17684 7.93423 7.86827C7.22566 8.10541 6.51994 8.34827 5.80851 8.59684C4.85637 8.93065 4.05546 9.59477 3.55115 10.4687C3.04684 11.3425 2.87256 12.3683 3.05994 13.3597C3.19709 14.0883 3.33709 14.8111 3.4828 15.5283C2.99137 16.0854 2.49994 16.6483 2.00851 17.2197C1.35043 17.9848 0.988525 18.9605 0.988525 19.9697C0.988525 20.9789 1.35043 21.9546 2.00851 22.7197C2.5028 23.2968 2.99709 23.8626 3.49423 24.4226C3.34405 25.1605 3.19928 25.8996 3.05994 26.6397C2.87256 27.6311 3.04684 28.6569 3.55115 29.5307C4.05546 30.4046 4.85637 31.0688 5.80851 31.4026C6.51994 31.6511 7.22566 31.894 7.93137 32.1311C8.16566 32.8254 8.4028 33.5197 8.64566 34.2197C9.33709 36.1911 11.3599 37.3568 13.4114 36.9711C14.1514 36.8311 14.8857 36.6854 15.6142 36.5397C16.1628 37.0254 16.7171 37.5083 17.2799 37.9911C18.045 38.6492 19.0208 39.0111 20.0299 39.0111C21.0391 39.0111 22.0148 38.6492 22.7799 37.9911L21.8485 36.9083L22.7799 37.994C23.3358 37.5161 23.8882 37.0342 24.4371 36.5483C25.1485 36.694 25.8657 36.834 26.5885 36.9711C27.5803 37.1583 28.6063 36.9837 29.4803 36.4788C30.3542 35.9739 31.0181 35.1724 31.3514 34.2197C31.5971 33.5197 31.8371 32.8254 32.0657 32.1311C32.7742 31.894 33.4799 31.6511 34.1914 31.4026C35.1435 31.0688 35.9444 30.4046 36.4487 29.5307C36.953 28.6569 37.1273 27.6311 36.9399 26.6397C36.8041 25.9159 36.6631 25.193 36.5171 24.4711C37.0085 23.914 37.5028 23.3511 37.9914 22.7797C38.6495 22.0146 39.0114 21.0389 39.0114 20.0297C39.0114 19.0205 38.6495 18.0448 37.9914 17.2797C37.5003 16.7084 37.0051 16.1408 36.5057 15.5768C36.657 14.8391 36.8018 14.1 36.9399 13.3597C37.1273 12.3683 36.953 11.3425 36.4487 10.4687C35.9444 9.59477 35.1435 8.93065 34.1914 8.59684C33.4855 8.3488 32.7779 8.10594 32.0685 7.86827C31.8354 7.17038 31.5973 6.47417 31.3542 5.7797C31.0209 4.82645 30.3566 4.02446 29.482 3.51955C28.6074 3.01463 27.5807 2.84031 26.5885 3.02827C25.8485 3.16827 25.1142 3.31398 24.3885 3.4597C23.8358 2.9719 23.2796 2.48808 22.7199 2.00827Z" fill="#3197A5"/>
<path fill-rule="evenodd" clip-rule="evenodd" d="M27.3029 12.8437C27.4921 13.0522 27.6384 13.296 27.7334 13.5611C27.8283 13.8262 27.8701 14.1075 27.8563 14.3888C27.8425 14.67 27.7734 14.9458 27.653 15.2004C27.5325 15.4549 27.363 15.6832 27.1543 15.8722C25.2171 17.6294 23.9057 19.078 22.8257 20.7637C21.7343 22.4665 20.82 24.5008 19.7743 27.5037C19.654 27.849 19.4472 28.1578 19.1738 28.4007C18.9004 28.6436 18.5693 28.8124 18.2122 28.8912C17.8551 28.97 17.4837 28.956 17.1335 28.8507C16.7833 28.7453 16.4658 28.5521 16.2114 28.2894L11.66 23.598C11.2696 23.1889 11.0567 22.6421 11.0677 22.0768C11.0787 21.5115 11.3126 20.9734 11.7186 20.5798C12.1246 20.1863 12.6697 19.9691 13.2352 19.9757C13.8006 19.9823 14.3404 20.2122 14.7371 20.6151L16.94 22.8865C17.6371 21.2151 18.3686 19.778 19.2171 18.4522C20.5714 16.338 22.1743 14.6037 24.2743 12.698C24.4826 12.5085 24.7263 12.362 24.9913 12.2668C25.2563 12.1716 25.5375 12.1296 25.8188 12.1431C26.1 12.1566 26.3759 12.2255 26.6305 12.3457C26.8852 12.4659 27.1136 12.6351 27.3029 12.8437Z" fill="#3197A5"/>
</svg>
