<svg width="28" height="40" viewBox="0 0 28 40" fill="none" xmlns="http://www.w3.org/2000/svg">
<path d="M4.83401 30.0626C7.04783 32.1373 8.93146 32.1031 10.5781 30.5565C11.9193 28.858 13.0693 27.067 14.0211 25.179C14.8829 26.9573 15.8746 28.4792 16.724 29.7967C17.8255 31.5053 20.8225 30.304 19.484 28.0832C18.4854 26.4259 16.6982 24.5476 14.0281 22.2712C14.1558 22.3921 8.74779 27.1959 7.75184 27.9489C6.86415 28.6205 5.07747 29.1663 3.57089 28.956C2.00236 28.7371 0.675147 27.4549 0.303484 26.4607C-0.0358611 25.5515 -0.0741048 24.5706 0.106879 23.8327C0.509784 22.192 1.58922 20.6626 2.95307 20.1124C2.973 20.1044 3.04679 20.06 3.06618 20.0664C-1.88825 18.3872 0.179596 10.8467 3.72925 10.9671C1.84723 12.7635 1.61292 14.6413 3.39799 16.6191C4.67457 17.7627 6.60345 18.8918 8.70038 20.0183C6.31743 20.9703 4.80115 22.0309 3.94848 22.9872C2.06 25.1068 3.42977 26.7181 5.84935 25.5188C7.31284 24.7932 9.18409 22.9438 11.7933 20.0177C10.186 18.4075 7.07207 15.4065 5.53586 12.6538C4.47743 10.7573 5.63228 8.23741 6.30181 7.60489C7.24982 6.70962 8.55764 5.67575 11.1857 6.35804C12.3562 6.83056 13.2514 7.91633 14.0286 9.26646C15.3688 6.39657 17.3359 5.38892 19.9677 6.35804C21.7754 6.92207 22.6965 8.14162 23.0057 9.81497C19.5627 6.42279 16.6556 9.05509 14.0211 14.7537C12.8587 12.1556 11.5487 10.6551 10.6551 9.61537C9.50458 8.27594 7.80408 9.33924 8.16605 10.6733C8.70146 12.6447 11.0823 15.3354 14.0286 17.9912C17.1479 14.5064 20.0534 11.6772 22.1772 11.2416C25.5276 10.7563 27.4317 12.0919 27.9768 15.1374C28.1669 17.1307 27.2001 18.7971 24.6631 20.0177C30.5962 23.8915 27.3681 28.088 24.1659 28.9105C26.8602 26.1139 26.6076 23.214 19.3052 20.067C22.5338 18.857 26.2618 14.7783 24.7395 14.3261C22.997 13.8086 18.6265 17.0162 16.0464 20.0183C18.0889 21.9153 19.8778 23.7256 21.3849 25.4402C21.6978 25.7966 21.9989 26.1487 22.2876 26.4965C23.9666 28.8201 23.6434 31.5535 21.0175 33.191C18.118 34.562 15.7965 33.7834 14.0583 30.8316C13.8525 31.3389 13.3403 32.5724 12.0416 33.3622C10.3955 34.3635 8.32818 34.113 7.03436 33.1171C6.31581 32.5643 5.64844 31.699 5.19059 30.8562C5.00853 30.5207 4.89703 30.2585 4.83455 30.0637L4.83401 30.0626Z" fill="white"/>
</svg>
