<svg width="659" height="338" viewBox="0 0 659 338" fill="none" xmlns="http://www.w3.org/2000/svg">
<path opacity="0.5" d="M609.679 -320.948C600.08 -272.386 587.512 -224.195 568.003 -178.699C561.678 -163.949 554.574 -149.407 544.947 -136.565C525.319 -110.379 496.533 -92.862 472.479 -70.6696C441.929 -42.4856 419.037 -6.17687 406.356 33.3802C396.815 63.1452 389.397 100.008 370.784 125.721C353.875 149.08 313.72 151.857 288.606 162.223C262.884 172.843 240.75 191.472 225.093 214.398C216.892 226.409 210.43 239.633 206.157 253.542C202.072 266.843 203.109 283.107 185.971 286.365C180.306 287.442 174.483 286.246 168.716 286.257C148.676 286.296 130.045 303.069 127.909 322.996M609.007 -319.06C600.333 -270.883 588.266 -222.809 568.889 -177.539C562.444 -162.458 554.994 -147.806 545.366 -134.57C533.73 -118.617 518.853 -105.672 503.577 -93.0428C493.151 -84.421 482.537 -75.9471 472.637 -66.766C453.083 -48.6273 436.331 -27.5014 423.048 -4.62555C415.282 8.75084 408.707 22.7257 403.463 37.0857C399.762 47.1571 396.297 58.0178 392.548 68.9598C387.262 84.334 381.409 99.8677 373.624 113.782C370.833 118.781 367.795 123.571 364.444 128.05C350.577 146.556 322.974 153.017 299.837 160.551C293.625 162.561 287.734 164.648 282.51 167.067C260.99 176.961 242.245 192.558 227.919 211.538C225.452 214.805 223.115 218.174 220.915 221.635C213.068 233.973 206.916 247.496 202.732 261.655C200.254 270.041 199.625 279.518 195.461 286.409C192.898 290.653 188.994 293.884 182.526 295.316C176.875 296.567 171.054 295.639 165.274 295.856C145.198 296.594 126.355 313.437 123.786 333.559M608.332 -317.173C600.586 -269.38 589.019 -221.424 569.772 -176.379C563.207 -160.964 555.414 -146.204 545.781 -132.577C534.174 -116.236 519.323 -102.846 503.991 -89.8299C493.523 -80.9408 482.829 -72.225 472.79 -62.8626C452.956 -44.3724 435.684 -23.1409 421.657 -0.417866C413.455 12.8669 406.374 26.6646 400.563 40.7911C396.442 50.7069 392.539 61.3617 388.358 72.0797C382.448 87.1447 375.971 102.34 367.704 116.154C364.749 121.113 361.569 125.887 358.096 130.384C343.693 148.984 316.252 156.282 293.444 164.717C287.326 166.955 281.545 169.287 276.411 171.917C255.347 182.708 237.157 198.95 223.431 218.496C221.067 221.857 218.835 225.322 216.733 228.874C209.241 241.542 203.398 255.363 199.305 269.772C196.881 278.311 196.188 287.894 191.989 294.958C189.401 299.311 185.482 302.648 179.079 304.27C173.44 305.698 167.624 305.038 161.83 305.46C141.72 306.894 122.662 323.811 119.662 344.125M607.66 -315.288C600.838 -267.878 589.774 -220.037 570.658 -175.221C563.972 -159.475 555.835 -144.606 546.2 -130.584C534.625 -113.855 519.797 -100.021 504.409 -86.6181C493.901 -77.4604 483.128 -68.5043 472.946 -58.9619C452.836 -40.1201 435.04 -18.7832 420.269 3.78423C411.632 16.9802 404.082 30.6163 397.666 44.4923C393.149 54.2639 388.781 64.7015 384.171 75.1942C377.635 89.9513 370.539 104.805 361.787 118.517C358.67 123.434 355.345 128.197 351.755 132.709C336.812 151.404 309.56 159.598 287.054 168.874C281.036 171.354 275.354 173.909 270.314 176.757C249.691 188.407 232.069 205.335 218.947 225.444C216.687 228.903 214.557 232.46 212.556 236.104C205.419 249.1 199.886 263.219 195.884 277.878C193.513 286.569 192.758 296.258 188.522 303.495C185.911 307.96 181.979 311.404 175.636 313.214C170.009 314.82 164.196 314.425 158.388 315.052C138.243 317.184 118.97 334.17 115.54 354.68M606.987 -313.4C601.091 -266.375 590.528 -218.651 571.545 -174.06C564.74 -157.98 556.286 -142.986 546.618 -128.589C535.107 -111.449 520.273 -97.1951 504.829 -83.4021C494.28 -73.9786 483.429 -64.7792 473.105 -55.0569C452.718 -35.8622 434.401 -14.4197 418.884 7.99351C409.812 21.0979 401.765 34.5652 394.774 48.1992C389.842 57.8208 385.03 68.0456 379.99 78.3171C372.829 92.7649 365.11 107.28 355.874 120.891C352.593 125.767 349.125 130.516 345.416 135.042C329.936 153.832 302.856 162.879 280.667 173.04C274.745 175.751 269.168 178.537 264.221 181.603C244.042 194.111 226.987 211.725 214.465 232.4C212.307 235.954 210.281 239.606 208.381 243.341C201.599 256.665 196.374 271.083 192.462 285.991C190.144 294.834 189.325 304.627 185.055 312.04C182.42 316.616 178.473 320.169 172.194 322.164C166.577 323.95 160.771 323.82 154.948 324.652C134.768 327.482 115.281 344.539 111.42 365.241M606.314 -311.515C601.346 -264.873 591.284 -217.266 572.43 -172.901C565.503 -156.489 556.712 -141.382 547.034 -126.597C535.56 -109.065 520.744 -94.3704 505.244 -80.1905C494.655 -70.4984 483.725 -61.0586 473.258 -51.1564C452.594 -31.6101 433.756 -10.0634 417.495 12.197C407.987 25.2125 399.441 38.5068 391.876 51.9003C386.529 61.3692 381.297 71.398 375.801 81.4328C368.049 95.5912 359.644 109.723 349.956 123.255C346.499 128.083 342.9 132.825 339.07 137.368C323.051 156.254 296.145 166.149 274.275 177.199C268.449 180.142 262.975 183.162 258.12 186.446C238.383 199.804 221.897 218.11 209.976 239.352C207.924 243.002 206 246.747 204.198 250.576C197.773 264.229 192.856 278.947 189.034 294.104C186.769 303.1 185.886 312.999 181.581 320.585C178.923 325.272 174.961 328.933 168.746 331.114C163.14 333.08 157.34 333.215 151.503 334.251C131.289 337.778 111.588 354.908 107.295 375.805M605.641 -309.626C601.599 -263.37 592.038 -215.88 573.316 -171.741C566.27 -154.997 557.139 -139.779 547.453 -124.602C536.016 -106.678 521.217 -91.5442 505.662 -76.9759C495.032 -67.0165 484.023 -57.3337 473.416 -47.2529C452.475 -27.3537 433.116 -5.70144 416.108 16.4033C406.164 29.3273 397.118 42.4528 388.982 55.6044C383.217 64.922 377.546 74.742 371.617 84.5501C363.243 98.4047 354.208 112.188 344.04 125.623C340.42 130.408 336.678 135.14 332.728 139.696C316.172 158.676 289.44 169.42 267.885 181.359C262.156 184.533 256.786 187.782 252.024 191.29C232.73 205.498 216.812 224.498 205.491 246.305C203.541 250.051 201.721 253.889 200.018 257.809C193.948 271.789 189.341 286.806 185.608 302.214C183.396 311.362 182.452 321.367 178.11 329.126C175.43 333.924 171.451 337.699 165.3 340.063C159.705 342.212 153.91 342.608 148.06 343.847C127.81 348.071 107.894 365.272 103.173 386.363M604.967 -307.74C601.849 -261.867 592.791 -214.495 574.199 -170.58C567.032 -153.504 557.561 -138.176 547.868 -122.608C536.466 -104.294 521.687 -88.7181 506.075 -73.7629C495.406 -63.5349 484.318 -53.6116 473.567 -43.3509C452.35 -23.1001 432.467 -1.34236 414.716 20.6082C404.339 33.442 394.791 46.3973 386.081 59.3083C379.899 68.4759 373.787 78.0873 367.427 87.67C358.43 101.22 348.768 114.655 338.12 127.992C334.336 132.734 330.451 137.455 326.381 142.026C309.286 161.102 282.729 172.691 261.491 185.521C255.858 188.923 250.592 192.405 245.922 196.134C227.069 211.187 211.72 230.886 201.001 253.259C199.153 257.1 197.438 261.035 195.836 265.044C190.121 279.353 185.822 294.668 182.179 310.326C180.02 319.626 179.012 329.738 174.635 337.67C171.931 342.577 167.937 346.468 161.849 349.011C156.264 351.344 150.476 352 144.612 353.444C124.327 358.363 104.198 375.637 99.0431 396.923M604.294 -305.855C602.103 -260.366 593.547 -213.11 575.086 -169.422C567.799 -152.012 557.987 -136.576 548.288 -120.614C536.92 -101.911 522.163 -85.8919 506.496 -70.5484C495.786 -60.0546 484.62 -49.8881 473.727 -39.4461C452.232 -18.8423 431.827 3.01954 413.332 24.8173C402.518 37.5609 392.467 50.3446 383.189 63.0152C376.587 72.0313 370.039 81.434 363.245 90.79C353.627 104.036 343.338 117.123 332.207 130.362C328.257 135.062 324.232 139.769 320.042 144.357C302.41 163.527 276.026 175.959 255.104 189.683C249.566 193.315 244.405 197.028 239.829 200.978C221.415 216.874 206.637 237.273 196.522 260.211C194.779 264.148 193.166 268.176 191.661 272.279C186.302 286.916 182.311 302.531 178.759 318.439C176.653 327.891 175.582 338.107 171.17 346.214C168.442 351.232 164.434 355.24 158.409 357.961C152.835 360.479 147.052 361.393 141.175 363.044C120.854 368.661 100.512 386.007 94.9275 407.485M603.621 -303.967C602.356 -258.862 594.301 -211.724 575.971 -168.26C568.563 -150.518 558.411 -134.972 548.703 -118.618C537.369 -99.5253 522.633 -83.063 506.91 -67.3325C496.16 -56.5701 484.912 -46.1631 473.88 -35.5425C452.108 -14.5873 431.181 7.38149 411.941 29.0222C400.692 41.6756 390.139 54.2877 380.292 66.7192C373.27 75.584 366.283 84.7794 359.057 93.9086C348.815 106.849 337.901 119.589 326.288 132.732C322.173 137.388 318.005 142.084 313.694 146.687C295.524 165.953 269.313 179.227 248.71 193.847C243.269 197.708 238.209 201.652 233.727 205.824C215.753 222.559 201.546 243.663 192.031 267.167C190.39 271.199 188.881 275.321 187.477 279.516C182.473 294.48 178.793 310.395 175.33 326.553C173.278 336.157 172.142 346.48 167.695 354.76C164.944 359.89 160.921 364.015 154.959 366.914C149.394 369.619 143.618 370.791 137.725 372.645C117.371 378.959 96.8125 396.376 90.7968 418.049M602.948 -302.081C602.61 -257.362 595.057 -210.339 576.857 -167.102C569.329 -149.027 558.836 -133.373 549.121 -116.625C537.821 -97.1423 523.109 -80.2394 507.326 -64.1193C496.535 -53.0897 485.21 -42.4409 474.035 -31.639C451.986 -10.3308 430.537 11.7422 410.552 33.2301C398.867 45.7933 387.809 58.2323 377.396 70.4247C369.953 79.1367 362.529 88.1262 354.871 97.0301C344.004 109.666 332.467 122.059 320.373 135.104C316.095 139.717 311.783 144.402 307.354 149.019C288.646 168.379 262.607 182.492 242.322 198.012C236.976 202.101 232.021 206.275 227.631 210.671C210.094 228.242 196.461 250.053 187.547 274.124C186.01 278.253 184.603 282.468 183.3 286.754C178.652 302.046 175.28 318.261 171.908 334.666C169.909 344.422 168.71 354.851 164.227 363.305C161.453 368.546 157.416 372.789 151.517 375.865C145.963 378.758 140.196 380.198 134.286 382.245C113.911 389.3 93.1253 406.745 86.6772 428.613M602.274 -300.195C602.861 -255.858 595.809 -208.953 577.742 -165.944C570.092 -147.537 559.257 -131.772 549.538 -114.633C538.27 -94.7625 523.58 -77.4148 507.741 -60.9077C496.911 -49.6095 485.506 -38.7204 474.188 -27.7385C451.863 -6.07874 429.89 16.0998 409.162 37.4335C397.043 49.9065 385.477 62.1739 374.498 74.1258C366.634 82.6851 358.772 91.4673 350.684 100.144C339.192 112.474 327.032 124.523 314.455 137.468C310.013 142.041 305.558 146.711 301.008 151.346C281.761 170.801 255.894 185.752 235.928 202.17C230.678 206.486 225.825 210.891 221.531 215.514C204.428 233.918 191.37 256.44 183.057 281.075C181.624 285.299 180.322 289.609 179.118 293.987C174.824 309.607 171.761 326.121 168.48 342.776C166.534 352.685 165.27 363.219 160.753 371.847C157.957 377.197 153.906 381.563 148.067 384.811C142.524 387.895 136.764 389.588 130.838 391.839C110.429 399.59 89.4281 417.109 82.5505 439.17M601.601 -298.307C603.114 -254.354 596.564 -207.565 578.628 -164.781C570.859 -146.042 559.681 -130.168 549.956 -112.635C538.721 -92.3769 524.053 -74.5858 508.159 -57.6903C497.289 -46.1262 485.806 -34.9939 474.346 -23.8322C451.743 -1.81941 429.25 20.4647 407.776 41.6441C395.221 54.0269 383.15 66.1212 371.603 77.8355C363.319 86.2419 355.017 94.8169 346.498 103.269C334.38 115.293 321.599 126.996 308.539 139.842C303.933 144.371 299.335 149.03 294.668 153.68C274.884 173.23 249.186 189.017 229.542 206.337C224.388 210.88 219.637 215.515 215.439 220.362C198.77 239.597 186.289 262.831 178.577 288.033C177.248 292.354 176.048 296.757 174.943 301.228C171.007 317.177 168.251 333.988 165.06 350.895C163.167 360.956 161.841 371.595 157.288 380.397C154.467 385.857 150.402 390.347 144.626 393.768C139.097 397.044 133.34 398.99 127.4 401.446C106.959 409.895 85.7407 427.483 78.4308 449.739M600.928 -296.421C603.367 -252.854 597.234 -206.218 579.513 -163.623C571.586 -144.568 560.101 -128.57 550.374 -110.644C539.169 -89.9982 524.526 -71.7624 508.577 -54.4786C497.666 -42.6459 486.103 -31.2718 474.501 -19.9315C451.623 2.43282 428.607 24.821 406.388 45.8463C393.398 58.1388 380.817 70.0573 368.707 81.5353C360 89.7875 351.26 98.1552 342.314 106.383C329.57 118.102 316.169 129.459 302.624 142.207C297.854 146.694 293.112 151.341 288.325 156.007C268.002 175.652 242.473 192.272 223.151 210.495C218.092 215.265 213.444 220.131 209.34 225.203C193.102 245.269 181.201 269.216 174.091 294.981C172.863 299.398 171.768 303.895 170.763 308.458C167.182 324.735 164.735 341.845 161.633 359.001C159.794 369.214 158.404 379.96 153.816 388.934C150.972 394.506 146.894 399.118 141.18 402.711C135.663 406.179 129.91 408.378 123.957 411.037C103.484 420.184 82.0491 437.844 74.3097 460.293M600.254 -294.535C603.62 -251.351 597.987 -204.833 580.397 -162.463C572.348 -143.076 560.521 -126.971 550.788 -108.651C539.613 -87.6168 524.996 -68.9362 508.991 -51.2655C498.039 -39.1656 486.398 -27.5497 474.654 -16.028C451.496 6.68783 427.961 29.183 404.997 50.054C391.57 62.2564 378.481 74.0004 365.808 85.2408C356.676 93.3388 347.502 101.501 338.124 109.503C324.753 120.916 310.734 131.93 296.702 144.577C291.769 149.024 286.886 153.657 281.977 158.337C261.117 178.077 235.757 195.532 216.756 214.658C211.791 219.655 207.247 224.751 203.237 230.048C187.427 250.943 176.109 275.604 169.6 301.937C168.476 306.448 167.484 311.039 166.58 315.695C163.353 332.299 161.216 349.71 158.204 367.115C156.416 377.479 154.964 388.331 150.341 397.48C147.474 403.164 143.384 407.901 137.731 411.663C132.226 415.326 126.478 417.772 120.51 420.637C100.002 430.481 78.3536 448.212 70.1804 470.855M599.582 -292.648C603.873 -249.848 598.744 -203.446 581.284 -161.304C573.114 -141.585 560.943 -125.372 551.208 -106.657C540.064 -85.2355 525.471 -66.1101 509.41 -48.0525C498.418 -35.6839 486.699 -23.8277 474.813 -12.1275C451.378 10.9399 427.32 33.5406 403.611 54.2588C389.75 66.371 376.151 77.9391 362.915 88.9433C353.36 96.8871 343.747 104.842 333.94 112.62C319.942 123.724 305.303 134.398 290.788 146.943C285.692 151.348 280.664 155.969 275.637 160.663C254.238 180.499 229.045 198.785 210.367 218.816C205.497 224.039 201.055 229.366 197.142 234.891C181.76 256.611 171.024 281.991 165.117 308.889C164.097 313.497 163.209 318.183 162.404 322.928C159.533 339.861 157.705 357.57 154.783 375.227C153.048 385.743 151.534 396.7 146.875 406.023C143.984 411.818 139.883 416.682 134.288 420.613C128.797 424.47 123.053 427.167 117.07 430.237C96.5282 440.777 74.6633 458.581 66.062 481.418M598.908 -290.762C604.125 -248.346 599.582 -202.026 582.167 -160.144C573.916 -140.074 561.361 -123.771 551.623 -104.663C540.508 -82.854 525.943 -63.2852 509.824 -44.8393C498.792 -32.2049 486.993 -20.1068 474.965 -8.22392C451.254 15.1965 426.673 37.9012 402.22 58.4638C387.922 70.4858 373.814 81.8767 360.014 92.6474C350.035 100.434 339.986 108.184 329.751 115.739C315.126 126.536 299.869 136.867 284.868 149.312C279.61 153.676 274.437 158.284 269.29 162.994C247.353 182.924 222.326 202.041 203.973 222.981C199.199 228.43 194.857 233.987 191.042 239.736C176.084 262.282 165.934 288.38 160.628 315.843C159.711 320.546 158.925 325.327 158.22 330.165C155.704 347.425 154.184 365.434 151.352 383.34C149.67 394.009 148.093 405.073 143.4 414.567C140.486 420.47 136.374 425.463 130.838 429.561C125.362 433.613 119.613 436.547 113.622 439.834C93.0231 451.03 70.9677 468.946 61.9327 491.978M598.234 -288.875C604.378 -246.843 600.337 -200.64 583.053 -158.983C574.682 -138.583 561.783 -122.172 552.042 -102.668C540.956 -80.4725 526.416 -60.4589 510.243 -41.6232C499.171 -28.7202 487.292 -16.3804 475.122 -4.31894C451.134 19.453 426.031 42.2648 400.833 62.6732C386.101 74.6049 371.482 85.8185 357.119 96.3543C346.717 103.986 336.231 111.527 325.566 118.86C310.313 129.348 294.438 139.34 278.953 151.683C273.532 156.005 268.215 160.599 262.948 165.325C240.473 185.35 215.608 205.297 197.585 227.142C192.903 232.818 188.664 238.603 184.946 244.58C170.41 267.952 160.849 294.767 156.144 322.797C155.331 327.597 154.649 332.47 154.041 337.399C151.881 354.987 150.671 373.294 147.929 391.452C146.3 402.273 144.658 413.441 139.93 423.11C136.993 429.124 132.872 434.246 127.394 438.51C121.935 442.759 116.185 445.939 110.18 449.431C89.547 461.324 67.2762 479.313 57.8103 502.539M597.563 -286.988C604.633 -245.341 601.092 -199.255 583.941 -157.825C575.45 -137.091 562.204 -120.573 552.461 -100.676C541.403 -78.0938 526.89 -57.6341 510.661 -38.4115C499.548 -25.2413 487.591 -12.6596 475.281 -0.418215C451.015 23.7067 425.39 46.6226 399.448 66.8768C384.28 78.7183 369.152 89.7519 354.228 100.056C343.4 107.53 332.478 114.867 321.384 121.975C305.501 132.153 289.012 141.806 273.041 154.049C267.456 158.33 261.996 162.911 256.609 167.653C233.595 187.773 208.893 208.55 191.198 231.302C186.609 237.202 182.471 243.219 178.852 249.423C164.735 273.618 155.765 301.153 151.661 329.747C150.951 334.642 150.372 339.61 149.866 344.631C148.061 362.547 147.16 381.154 144.508 399.558C142.932 410.531 141.227 421.806 136.464 431.648C133.503 437.773 129.376 443.023 123.952 447.455C118.51 451.902 112.76 455.329 106.74 459.025C86.0708 471.614 63.5876 489.675 53.6921 513.096M596.888 -285.102C604.885 -243.839 601.845 -197.87 584.824 -156.664C576.212 -135.599 562.62 -118.973 552.875 -98.6792C541.847 -75.7112 527.36 -54.8052 511.075 -35.1957C499.922 -21.7569 487.886 -8.93481 475.432 3.48647C450.89 27.9629 424.743 50.9858 398.054 71.0843C382.452 82.8357 366.812 93.6906 351.326 103.761C340.074 111.077 328.714 118.209 317.193 125.096C300.683 134.965 283.576 144.28 267.12 156.42C261.372 160.659 255.768 165.227 250.262 169.983C226.71 190.198 202.17 211.805 184.804 235.466C180.308 241.592 176.272 247.838 172.75 254.269C159.051 279.289 150.673 307.544 147.171 336.704C146.566 341.695 146.09 346.758 145.683 351.869C144.235 370.114 143.641 389.02 141.08 407.673C139.557 418.799 137.789 430.179 132.992 440.196C130.008 446.433 125.872 451.813 120.506 456.409C115.08 461.056 109.329 464.727 103.297 468.629C82.5929 481.915 59.8945 500.048 49.5667 523.662M596.216 -283.216C605.138 -242.336 602.6 -196.484 585.71 -155.507C576.977 -134.108 563.039 -117.376 553.293 -96.6884C542.291 -73.3327 527.833 -51.982 511.491 -31.9855C500.297 -18.2795 488.184 -5.21554 475.589 7.38568C450.769 32.2151 424.1 55.3421 396.668 75.2864C380.629 86.9476 364.481 97.6225 348.432 107.461C336.755 114.62 324.959 121.545 313.008 128.21C295.87 137.769 278.147 146.747 261.205 158.784C255.294 162.985 249.546 167.536 243.919 172.309C219.829 192.62 195.448 215.056 178.413 239.625C174.009 245.974 170.075 252.452 166.654 259.11C153.371 284.956 145.588 313.928 142.686 343.654C142.183 348.74 141.812 353.896 141.503 359.101C140.409 377.675 140.126 396.878 137.654 415.783C136.186 427.06 134.352 438.547 129.521 448.738C126.514 455.086 122.371 460.597 117.059 465.356C111.653 470.201 105.899 474.117 99.8514 478.223C79.1124 492.207 56.2015 510.411 45.4428 534.219M595.543 -281.328C605.391 -240.833 603.354 -195.097 586.596 -154.344C577.742 -132.613 563.457 -115.776 553.712 -94.6904C542.737 -70.9499 528.307 -49.1515 511.911 -28.7667C500.678 -14.7935 488.483 -1.48639 475.746 11.2934C450.65 36.4743 423.457 59.7069 395.281 79.4984C378.808 91.0693 362.147 101.563 345.536 111.172C333.436 118.172 321.202 124.891 308.823 131.335C291.057 140.581 272.716 149.224 255.287 161.159C249.214 165.318 243.321 169.857 237.576 174.644C212.948 195.049 188.725 218.314 172.022 243.791C167.711 250.368 163.876 257.077 160.555 263.96C147.686 290.629 140.5 320.321 138.199 350.613C137.8 355.797 137.531 361.046 137.323 366.342C136.584 385.244 136.609 404.747 134.228 423.901C132.812 435.33 130.916 446.922 126.049 457.287C123.018 463.744 118.871 469.386 113.611 474.311C108.226 479.355 102.467 483.517 96.4077 487.827C75.6333 502.509 52.5086 520.785 41.3176 544.785M594.868 -279.442C605.642 -239.332 604.108 -193.711 587.48 -153.185C578.508 -131.122 563.875 -114.178 554.128 -92.6982C543.179 -68.5714 528.78 -46.3282 512.326 -25.5551C501.051 -11.3146 488.778 2.23286 475.899 15.1953C450.526 40.7293 422.814 64.066 393.891 83.7019C376.981 95.1826 359.81 105.495 342.638 114.873C330.113 121.714 317.443 128.23 304.635 134.452C286.241 143.387 267.285 151.695 249.37 163.525C243.134 167.645 237.098 172.17 231.232 176.973C206.066 197.474 182 221.565 165.632 247.951C161.413 254.753 157.679 261.691 154.457 268.802C142.001 296.296 135.413 326.707 133.715 357.564C133.42 362.842 133.253 368.187 133.146 373.575C132.763 392.805 133.096 412.607 130.805 432.011C129.443 443.592 127.483 455.291 122.581 465.829C119.527 472.397 115.375 478.17 110.169 483.259C104.804 488.504 99.0418 492.909 92.9667 497.423C72.1584 512.801 48.817 531.149 37.1978 555.344M594.196 -277.556C605.897 -237.83 604.863 -192.328 588.365 -152.026C579.271 -129.631 564.249 -112.6 554.544 -90.7058C543.575 -66.2141 529.25 -43.5048 512.741 -22.3433C501.427 -7.83422 489.075 5.95373 476.054 19.0947C450.404 44.9802 422.169 68.4224 392.502 87.9054C375.158 99.296 357.475 109.425 339.741 118.574C326.79 125.255 313.684 131.567 300.448 137.566C281.427 146.19 261.877 154.2 243.452 165.89C237.06 169.981 230.874 174.48 224.888 179.298C199.184 199.893 175.274 224.815 159.241 252.11C155.113 259.137 151.481 266.306 148.358 273.644C136.314 301.961 130.324 333.092 129.227 364.514C129.034 369.888 128.974 375.326 128.964 380.807C128.935 400.365 129.579 420.467 127.377 440.121C126.068 451.855 124.045 463.658 119.107 474.371C116.03 481.05 111.875 486.954 106.721 492.207C101.377 497.652 95.6111 502.301 89.5217 507.02C68.678 523.096 45.1242 541.514 33.0727 565.905M593.523 -275.668C606.148 -236.325 605.617 -190.941 589.251 -150.866C580.037 -128.137 564.671 -110.998 554.963 -88.7106C544.024 -63.8312 529.725 -40.6771 513.159 -19.1287C501.803 -4.35238 489.374 9.67733 476.211 22.9997C450.284 49.2381 421.527 72.7859 391.116 92.1133C373.335 103.414 355.144 113.36 336.848 122.28C323.472 128.801 309.919 134.883 296.264 140.686C276.6 148.963 256.444 156.671 237.538 168.26C230.983 172.308 224.652 176.794 218.546 181.629C192.304 202.319 168.55 228.069 152.851 256.273C148.815 263.525 145.283 270.925 142.264 278.489C130.629 307.631 125.24 339.481 124.745 371.47C124.655 376.94 124.697 382.472 124.788 388.044C125.115 407.93 126.067 428.331 123.955 448.234C122.699 460.12 120.613 472.029 115.639 482.915C112.539 489.706 108.38 495.741 103.276 501.157C97.955 506.804 92.1818 511.695 86.0794 516.62C65.2017 533.392 41.4313 551.883 28.9489 576.467M592.85 -273.783C606.401 -234.825 606.373 -189.557 590.138 -149.707C580.803 -126.647 565.093 -109.398 555.381 -86.7185C544.475 -61.4499 530.199 -37.8524 513.578 -15.9157C502.184 -0.872144 489.673 13.4008 476.367 26.9016C450.163 53.493 420.884 77.1449 389.729 96.3195C371.514 107.53 352.81 117.292 333.951 125.985C320.152 132.345 306.163 138.225 292.078 143.808C271.787 151.775 251.013 159.143 231.621 170.631C224.902 174.639 218.427 179.112 212.203 183.96C185.423 204.745 161.821 231.324 146.46 260.437C142.515 267.914 139.083 275.544 136.165 283.336C124.938 313.304 120.152 345.871 120.256 378.425C120.271 383.99 120.415 389.617 120.607 395.281C121.289 415.494 122.549 436.195 120.53 456.347C119.327 468.386 117.177 480.401 112.168 491.46C109.045 498.362 104.883 504.53 99.8311 510.107C94.5346 515.956 88.7537 521.09 82.6356 526.218C61.7226 543.688 37.7397 562.25 24.8264 587.028M592.176 -271.897C606.654 -233.322 607.126 -188.172 591.021 -148.547C581.567 -125.153 565.511 -107.798 555.797 -84.7233C544.92 -59.0671 530.67 -35.0249 513.993 -12.7012C502.559 2.61095 489.969 17.1242 476.523 30.805C450.042 57.748 420.24 81.5054 388.34 100.524C369.689 111.644 350.476 121.224 331.055 129.688C316.831 135.888 302.409 141.566 287.892 146.923C266.977 154.581 245.58 161.611 225.706 172.997C218.825 176.964 212.206 181.424 205.861 186.288C178.543 207.168 155.094 234.577 140.071 264.595C136.216 272.299 132.885 280.159 130.069 288.177C119.249 318.969 115.066 352.255 115.772 385.376C115.89 391.038 116.138 396.757 116.43 402.514C117.468 423.056 119.037 444.053 117.107 464.457C115.957 476.648 113.744 488.767 108.7 500.001C105.554 507.012 101.392 513.315 96.3888 519.055C91.1156 525.104 85.327 530.481 79.196 535.815C58.2476 553.983 34.0509 572.616 20.7052 597.588M591.503 -270.009C606.908 -231.819 607.882 -186.784 591.907 -147.387C582.331 -123.661 565.932 -106.197 556.215 -82.7296C545.368 -56.6857 531.143 -32.1987 514.408 -9.48676C502.933 6.09261 490.266 20.8478 476.677 34.7099C449.917 62.0044 419.596 85.8688 386.95 104.734C367.865 115.763 348.128 125.126 328.159 133.396C313.501 139.411 298.653 144.912 283.705 150.046C262.164 157.396 240.145 164.083 219.788 175.371C212.743 179.296 205.981 183.742 199.517 188.621C171.661 209.596 148.309 237.808 133.68 268.762C129.901 276.684 126.685 284.782 123.97 293.026C113.557 324.646 109.977 358.649 111.286 392.333C111.506 398.091 111.859 403.905 112.248 409.753C113.643 430.623 115.519 451.92 113.679 472.573C112.581 484.915 110.306 497.142 105.227 508.549C102.057 515.67 97.8938 522.105 92.9396 528.009C87.6938 534.261 81.8948 539.88 75.7495 545.419C54.7671 564.284 30.3552 582.988 16.58 608.154M590.83 -268.123C607.159 -230.317 608.635 -185.399 592.792 -146.228C583.097 -122.17 566.353 -104.596 556.632 -80.7358C545.816 -54.3043 531.615 -29.3739 514.825 -6.27357C503.309 9.57443 490.564 24.5701 476.831 38.6121C449.795 66.2582 418.95 90.2281 385.561 108.94C366.04 119.878 345.797 129.064 325.261 137.1C310.182 142.958 294.896 148.253 279.52 153.165C257.354 160.206 234.713 166.554 213.871 177.74C206.662 181.622 199.757 186.057 193.174 190.951C164.779 212.021 141.59 241.068 127.289 272.923C123.604 281.073 120.47 289.395 117.872 297.869C107.799 330.295 104.89 365.035 106.8 399.286C107.126 405.139 107.58 411.048 108.069 416.986C109.818 438.184 112.006 459.78 110.254 480.683C109.209 493.177 106.871 505.51 101.756 517.091C98.5631 524.324 94.4002 530.89 89.4933 536.956C84.2737 543.409 78.4642 549.27 72.3059 555.012C51.2882 574.574 26.6624 593.35 12.4563 618.711M590.156 -266.236C607.412 -228.814 609.388 -184.014 593.677 -145.069C583.861 -120.679 566.773 -102.996 557.047 -78.7419C546.262 -51.9212 532.086 -26.5489 515.239 -3.06026C503.683 13.0536 490.856 28.2923 476.985 42.5143C449.672 70.5133 418.305 94.5874 384.171 113.144C364.214 123.993 343.464 133 322.364 140.801C306.863 146.504 291.139 151.594 275.331 156.281C252.54 163.014 229.278 169.021 207.953 180.105C200.579 183.947 193.531 188.367 186.828 193.277C157.896 214.442 134.869 244.326 120.895 277.082C117.303 285.458 114.27 294.012 111.772 302.712C102.124 335.972 99.7995 371.419 102.311 406.237C102.738 412.186 103.298 418.187 103.886 424.219C105.991 445.744 108.487 467.64 106.826 488.793C105.834 501.44 103.432 513.878 98.2827 525.633C95.0663 532.977 90.9051 539.674 86.0456 545.903C80.8535 552.558 75.0335 558.662 68.8609 564.609C47.8079 584.867 22.9696 603.716 8.33118 629.27M589.484 -264.35C607.667 -227.312 610.145 -182.628 594.564 -143.907C584.628 -119.184 567.195 -101.394 557.465 -76.747C546.711 -49.5386 532.56 -23.7215 515.658 0.155469C504.062 16.5379 491.156 32.017 477.142 46.419C449.552 74.7695 417.664 98.9492 382.783 117.353C362.392 128.11 341.135 136.942 319.468 144.509C303.545 150.055 287.384 154.939 271.144 159.404C247.728 165.827 223.842 171.494 202.034 182.478C194.498 186.278 187.307 190.686 180.483 195.61C151.012 216.87 128.15 247.591 114.504 281.249C111.006 289.853 108.076 298.638 105.673 307.561C96.4482 341.657 94.7113 377.812 97.8239 413.196C98.3537 419.241 99.0168 425.337 99.7062 431.459C102.166 453.313 104.97 475.508 103.4 496.91C102.46 509.709 99.9955 522.253 94.8104 534.181C91.5707 541.637 87.4236 548.475 82.5975 554.859C77.4454 561.726 71.6011 568.061 65.4155 574.214C44.3272 595.17 19.275 614.091 4.20569 639.839M588.81 -262.463C607.919 -225.81 610.898 -181.243 595.449 -142.749C585.391 -117.693 567.616 -99.7965 557.883 -74.7533C547.158 -47.1572 533.033 -20.8952 516.075 3.36864C481.532 52.7926 435.118 94.0386 381.395 121.558C345.258 140.069 306.308 152.51 266.958 162.519C242.917 168.635 218.411 173.961 196.119 184.843C155.137 204.849 124.516 242.853 108.114 285.406C91.7125 327.959 88.652 374.781 93.3401 420.145C97.5924 461.312 107.733 504.719 91.3426 542.72C72.597 586.181 24.3606 609.762 0.0848209 650.393M698.714 -20.0783C664.034 -56.0572 616.421 -79.3013 566.723 -84.5121C552.584 -85.9943 537.748 -85.9551 524.835 -80.0097C487.523 -62.8287 479.378 -12.2281 468.288 22.8554C454.904 65.1921 442.536 107.931 425.721 149.082C416.281 172.185 402.943 197.028 379.102 204.409C354.959 211.881 329.945 198.619 306.848 188.361C279.934 176.407 250.816 168.03 221.394 169.289C191.972 170.549 162.16 182.388 143.53 205.196C128.942 223.058 122.196 245.995 117.676 268.61C105.801 328.032 107.036 390.036 121.266 448.939M698.094 -22.4976C667.444 -54.2968 626.068 -74.2365 580.438 -81.3699C576.2 -82.0326 571.949 -82.6021 567.681 -83.0254C553.657 -84.4103 538.979 -84.3405 526.174 -78.5545C489.129 -61.8324 480.32 -12.8069 468.829 21.8035C458.642 52.4883 449.177 83.6184 437.953 114.407C434.073 125.103 430.003 135.731 425.651 146.261C416.209 169.1 403.019 193.64 379.671 201.285C356.029 209.025 331.549 196.702 308.914 187.28C282.538 176.304 254.015 168.778 225.156 170.551C215.109 171.169 205.01 173.025 195.33 176.134C177.216 181.949 160.565 192.15 148.481 206.827C133.966 224.456 126.999 246.951 122.151 269.059C112.325 313.804 109.914 359.727 115.059 404.844C116.593 418.307 118.799 431.695 121.688 444.957M697.474 -24.914C667.846 -55.6535 627.558 -73.3052 581.277 -79.9844C577.076 -80.5896 572.867 -81.1392 568.641 -81.5342C554.731 -82.8192 540.21 -82.7215 527.511 -77.0948C490.732 -60.8318 481.265 -13.384 469.372 20.756C458.925 50.7459 449.349 81.4068 437.928 111.972C434.02 122.532 429.935 133.035 425.582 143.444C416.14 166.021 403.096 190.257 380.242 198.165C357.099 206.172 333.153 194.789 310.983 186.203C285.147 176.203 257.217 169.531 228.924 171.817C219.072 172.615 209.164 174.606 199.658 177.805C181.87 183.781 165.46 193.977 153.438 208.46C138.998 225.859 131.808 247.908 126.63 269.509C116.122 313.234 112.674 357.784 116.608 401.783C117.781 414.913 119.609 427.99 122.115 440.977M696.854 -27.333C668.247 -57.0114 629.055 -72.3834 582.117 -78.6015C577.952 -79.1534 573.785 -79.6817 569.602 -80.0471C555.807 -81.2349 541.444 -81.1038 528.853 -75.6392C492.341 -59.8351 482.219 -13.9678 469.917 19.7045C459.215 48.9968 449.454 79.1628 437.908 109.533C433.948 119.951 429.87 130.335 425.516 140.624C416.072 162.938 403.176 186.871 380.817 195.042C358.174 203.315 334.763 192.873 313.055 185.123C287.756 176.1 260.423 170.279 232.693 173.078C223.037 174.057 213.322 176.183 203.988 179.47C186.524 185.607 170.358 195.795 158.396 210.089C144.03 227.257 136.619 248.862 131.111 269.955C119.92 312.662 115.435 355.836 118.159 398.72C118.971 411.516 120.424 424.28 122.547 436.993M696.234 -29.7495C668.649 -58.3682 630.556 -71.4687 582.954 -77.2146C578.827 -77.7119 574.7 -78.219 570.56 -78.5547C556.88 -79.6426 542.674 -79.4836 530.191 -74.1797C493.946 -58.8345 483.174 -14.5477 470.458 18.6583C459.507 47.253 449.603 76.9439 437.881 107.1C433.887 117.38 429.802 127.639 425.446 137.808C416.001 159.86 403.254 183.489 381.386 191.923C359.244 200.464 336.367 190.962 315.122 184.048C290.36 176.003 263.621 171.032 236.456 174.346C226.995 175.503 217.473 177.764 208.31 181.14C191.174 187.439 175.251 197.621 163.346 211.724C149.052 228.661 141.42 249.822 135.583 270.406C123.71 312.093 118.188 353.893 119.699 395.662C120.149 408.126 121.225 420.578 122.964 433.015M695.613 -32.167C669.05 -59.726 632.06 -70.5621 583.793 -75.8301C579.702 -76.2756 575.618 -76.7572 571.52 -77.0661C557.955 -78.0568 543.904 -77.8658 531.53 -72.7213C495.553 -57.8351 484.137 -15.1313 471.001 17.6112C459.808 45.5097 449.758 74.7227 437.86 104.665C433.83 114.809 429.736 124.944 425.38 134.991C415.934 156.78 403.334 180.107 381.96 188.804C360.317 197.611 337.977 189.049 317.192 182.973C292.969 175.902 266.826 171.784 240.225 175.613C230.96 176.951 221.629 179.348 212.638 182.812C195.828 189.271 180.146 199.448 168.304 213.359C154.085 230.065 146.232 250.783 140.066 270.86C127.511 311.527 120.95 351.953 121.252 392.606C121.341 404.736 122.039 416.876 123.395 429.039M694.992 -34.5863C669.452 -61.0856 633.57 -69.6697 584.631 -74.4489C580.579 -74.8438 576.534 -75.3014 572.478 -75.5792C559.03 -76.4714 545.135 -76.2512 532.868 -71.2674C497.156 -56.8387 485.104 -15.7223 471.541 16.558C460.113 43.7591 449.908 72.4968 437.832 102.224C433.767 112.231 429.665 122.242 425.307 132.167C415.86 153.694 403.408 176.715 382.526 185.678C361.383 194.751 339.578 187.13 319.256 181.89C295.57 175.796 270.023 172.53 243.985 176.872C234.916 178.39 225.778 180.921 216.959 184.476C200.474 191.096 185.036 201.266 173.253 214.986C159.107 231.462 151.032 251.736 144.537 271.304C131.3 310.951 123.701 350.003 122.792 389.539C122.519 401.338 122.841 413.165 123.814 425.051M694.373 -37.0026C669.852 -62.4408 635.084 -68.7813 585.469 -73.0619C581.454 -73.4077 577.45 -73.8383 573.438 -74.0879C560.103 -74.8816 546.365 -74.6308 534.207 -69.8062C498.761 -55.838 486.079 -16.3046 472.085 15.512C460.428 42.0157 450.067 70.2769 437.81 99.7925C433.712 109.664 429.598 119.548 425.241 129.353C415.792 150.616 403.488 173.335 383.1 182.561C362.457 191.902 341.185 185.219 321.328 180.815C298.181 175.698 273.229 173.284 247.756 178.14C238.882 179.837 229.937 182.504 221.29 186.147C205.13 192.928 189.936 203.093 178.212 216.623C164.14 232.866 155.844 252.696 149.017 271.758C135.1 310.386 126.462 348.064 124.342 386.485C123.708 397.95 123.652 409.467 124.242 421.078M693.752 -39.4219C670.254 -63.8004 636.602 -67.9083 586.308 -71.6792C582.332 -71.9773 578.369 -72.3797 574.398 -72.5997C561.179 -73.2948 547.598 -73.0134 535.547 -68.3496C500.369 -54.8402 487.062 -16.8954 472.628 14.4616C460.75 40.268 450.222 68.0539 437.787 97.3533C433.655 107.086 429.531 116.848 425.172 126.533C415.723 147.534 403.566 169.947 383.672 179.44C363.528 189.047 342.791 183.306 323.397 179.738C300.788 175.598 276.43 174.036 251.522 179.405C242.844 181.281 234.091 184.083 225.615 187.815C209.783 194.758 194.83 204.915 183.166 218.256C169.168 234.269 160.65 253.654 153.495 272.21C138.895 309.817 129.22 346.121 125.889 383.426C124.893 394.559 124.459 405.761 124.668 417.1M693.131 -41.8396C670.655 -65.1584 638.121 -67.0435 587.146 -70.295C583.208 -70.5453 579.285 -70.9196 575.358 -71.1114C562.252 -71.7079 548.829 -71.3958 536.886 -66.8941C501.974 -53.8423 488.05 -17.4846 473.171 13.4115C461.078 38.5219 450.382 65.8325 437.763 94.9171C433.599 104.516 429.464 114.15 425.105 123.714C415.654 144.452 403.644 166.563 384.244 176.319C364.6 186.193 344.398 181.393 325.466 178.66C303.395 175.498 279.633 174.788 255.289 180.671C246.807 182.728 238.246 185.665 229.941 189.485C214.434 196.589 199.725 206.741 188.122 219.888C174.197 235.669 165.457 254.611 157.973 272.659C142.692 309.247 131.979 344.176 127.437 380.365C126.081 391.165 125.269 402.056 125.096 413.118M692.513 -44.2572C671.059 -66.5163 639.647 -66.1883 587.984 -68.9106C584.085 -69.116 580.202 -69.4607 576.315 -69.6229C563.325 -70.1208 550.058 -69.7794 538.223 -65.4357C503.578 -52.8429 489.043 -18.0737 473.71 12.3628C461.41 36.7788 450.54 63.6112 437.735 92.481C433.538 101.943 429.391 111.453 425.032 120.896C415.58 141.372 403.719 163.178 384.81 173.198C365.666 183.339 345.999 179.479 327.53 177.583C305.998 175.397 282.831 175.539 259.049 181.936C250.762 184.171 242.392 187.244 234.261 191.153C219.08 198.418 204.614 208.564 193.07 221.521C179.219 237.073 170.258 255.569 162.444 273.109C146.481 308.677 134.729 342.231 128.976 377.306C127.259 387.772 126.07 398.352 125.513 409.139M691.891 -46.6751C671.459 -67.8745 641.171 -65.346 588.822 -67.5266C584.962 -67.6871 581.118 -67.9993 577.274 -68.1346C564.398 -68.534 551.288 -68.162 539.562 -63.9803C505.184 -51.8465 490.047 -18.663 474.253 11.3123C461.754 35.034 450.701 61.3883 437.713 90.0433C433.485 99.37 429.326 108.755 424.966 118.076C415.512 138.289 403.8 159.793 385.385 170.075C366.741 180.482 347.609 177.56 329.603 176.504C308.608 175.294 286.038 176.289 262.82 183.198C254.73 185.613 246.552 188.82 238.593 192.82C223.738 200.245 209.514 210.385 198.03 223.152C184.252 238.473 175.069 256.525 166.928 273.558C150.283 308.106 137.492 340.286 130.529 374.243C128.449 384.378 126.884 394.645 125.945 405.155M691.271 -49.0913C671.86 -69.2296 642.698 -64.5144 589.662 -66.1408C585.841 -66.2577 582.035 -66.546 578.234 -66.6433C565.474 -66.9692 552.521 -66.5415 540.903 -62.5206C506.791 -50.8471 491.059 -19.2476 474.799 10.2651C462.108 33.2967 450.869 59.1713 437.691 87.6086C433.432 96.7999 429.26 106.056 424.897 115.259C415.443 135.21 403.878 156.409 385.956 166.955C367.812 177.629 349.214 175.649 331.672 175.427C311.215 175.194 289.241 177.04 266.587 184.464C258.693 187.06 250.707 190.402 242.92 194.49C228.391 202.078 214.409 212.211 202.986 224.785C189.282 239.874 179.878 257.483 171.407 274.008C154.081 307.536 140.252 338.342 132.079 371.184C129.638 380.985 127.695 390.941 126.374 401.178M690.651 -51.5105C672.262 -70.5891 644.226 -63.6984 590.5 -64.7567C586.718 -64.8315 582.953 -65.0859 579.194 -65.1549C566.549 -65.3837 553.752 -64.9239 542.24 -61.0637C508.395 -49.8478 492.078 -19.8325 475.339 9.21478C462.465 31.5563 451.03 56.9512 437.666 85.1708C433.378 94.2253 429.192 103.357 424.828 112.439C415.372 132.126 403.955 153.023 386.527 163.833C368.882 174.773 350.82 173.734 333.74 174.348C313.822 175.092 292.442 177.79 270.351 185.727C262.651 188.503 254.86 191.979 247.242 196.158C233.039 203.906 219.3 214.034 207.936 226.417C194.307 241.275 184.68 258.439 175.879 274.457C157.872 306.966 143.004 336.397 133.619 368.123C130.816 377.592 128.497 387.235 126.792 397.197M690.03 -53.9284C672.662 -71.9473 645.755 -62.8936 591.337 -63.3726C587.595 -63.4052 583.869 -63.6259 580.152 -63.6653C567.622 -63.7969 554.982 -63.3065 543.579 -59.6056C510.001 -48.8486 493.106 -20.4145 475.881 8.16729C462.831 29.823 451.199 54.7325 437.641 82.7359C433.322 91.6549 429.123 100.661 424.759 109.622C415.303 129.047 404.033 149.638 387.097 160.713C369.953 171.922 352.425 171.822 335.808 173.272C316.427 174.993 295.642 178.544 274.117 186.995C266.613 189.951 259.013 193.562 251.567 197.829C237.69 205.738 224.194 215.859 212.89 228.053C199.335 242.681 189.485 259.4 180.356 274.912C161.666 306.401 145.761 334.459 135.166 365.069C132.002 374.204 129.305 383.536 127.218 393.222M689.411 -56.3461C673.066 -73.3054 647.287 -62.1026 592.177 -61.9897C588.474 -61.9816 584.787 -62.1685 581.113 -62.1783C568.698 -62.2127 556.214 -61.6904 544.918 -58.1502C511.607 -47.8522 494.145 -20.9964 476.423 7.11559C463.203 28.0869 451.366 52.5126 437.616 80.2983C433.268 89.0833 429.055 97.9628 424.691 106.802C415.232 125.964 404.11 146.253 387.668 157.591C371.023 169.066 354.029 169.905 337.875 172.194C319.034 174.89 298.844 179.294 277.882 188.257C270.575 191.393 263.167 195.138 255.894 199.496C242.341 207.566 229.089 217.682 217.847 229.684C204.365 244.079 194.295 260.355 184.835 275.36C165.464 305.829 148.521 332.512 136.715 362.006C133.187 370.807 130.114 379.827 127.644 389.238M688.79 -58.7637C673.465 -74.6619 648.816 -61.3255 593.014 -60.6041C589.349 -60.5566 585.701 -60.7069 582.07 -60.687C569.77 -60.6215 557.449 -60.0475 546.256 -56.6904C513.231 -46.7843 495.191 -21.5683 476.964 6.06965C463.583 26.3623 451.535 50.2983 437.592 77.8635C433.215 86.5131 428.986 95.2671 424.622 103.985C415.163 122.885 404.188 142.868 388.239 154.472C372.092 166.214 355.634 167.994 339.944 171.116C321.641 174.791 302.047 180.045 281.65 189.523C274.537 192.838 267.322 196.72 260.22 201.165C246.996 209.398 233.984 219.506 222.801 231.317C209.392 245.483 199.1 261.314 189.312 275.81C169.258 305.259 151.277 330.569 138.26 358.948C134.372 367.416 130.921 376.124 128.069 385.262M688.171 -61.1814C673.869 -76.0199 650.346 -60.561 593.855 -59.2198C590.229 -59.133 586.62 -59.2453 583.033 -59.1986C570.847 -59.0359 558.684 -58.4313 547.599 -55.2335C514.841 -45.7877 496.25 -22.1387 477.513 5.01953C463.979 24.6363 451.714 48.0813 437.574 75.4274C433.171 83.9429 428.925 92.5699 424.559 101.168C415.098 119.804 404.271 139.485 388.817 151.354C373.17 163.364 357.248 166.082 342.019 170.042C324.253 174.694 305.255 180.799 285.421 190.791C278.505 194.286 271.481 198.304 264.551 202.836C251.652 211.229 238.885 221.333 227.76 232.953C214.425 246.887 203.914 262.276 193.795 276.264C173.061 304.694 154.04 328.631 139.813 355.891C135.563 364.028 131.736 372.421 128.501 381.284M687.55 -63.5991C674.268 -77.3793 651.876 -59.8117 594.691 -57.8341C591.106 -57.7093 587.536 -57.7851 583.99 -57.7073C571.919 -57.4447 559.912 -56.8109 548.934 -53.7738C516.442 -44.7856 497.313 -22.6993 478.05 3.97216C464.37 22.9174 451.882 45.8685 437.545 72.9912C433.116 81.3728 428.851 89.8714 424.486 98.3496C415.025 116.724 404.346 136.101 389.383 148.233C374.236 160.509 358.85 164.169 344.083 168.965C326.855 174.591 308.451 181.549 289.181 192.056C282.461 195.731 275.63 199.883 268.871 204.505C256.297 213.059 243.772 223.157 232.708 234.585C219.446 248.289 208.713 263.232 198.265 276.713C176.848 304.123 156.788 326.684 141.353 352.83C136.742 360.633 132.538 368.716 128.919 377.304M686.93 -66.0183C674.67 -78.7388 653.402 -59.0793 595.529 -56.4528C591.982 -56.2914 588.453 -56.3264 584.95 -56.2218C572.993 -55.862 561.143 -55.1975 550.275 -52.3198C518.048 -43.7919 498.389 -23.26 478.595 2.92046C464.774 21.1997 452.062 43.6527 437.523 70.5535C433.067 78.801 428.785 87.1727 424.418 95.5283C414.955 113.639 404.425 132.714 389.955 145.109C375.308 157.652 360.455 162.251 346.152 167.885C329.462 174.488 311.654 182.297 292.949 193.318C286.424 197.171 279.785 201.46 273.2 206.172C260.952 214.886 248.67 224.977 237.667 236.216C224.48 249.688 213.524 264.188 202.747 277.161C180.649 303.551 159.551 324.738 142.903 349.768C137.931 357.238 133.349 365.009 129.347 373.322M686.31 -68.4346C675.071 -80.0941 654.929 -58.3609 596.368 -55.0672C592.86 -54.8693 589.369 -54.8649 585.909 -54.7306C574.068 -54.2709 562.374 -53.5772 551.614 -50.8616C519.652 -42.7927 499.476 -23.808 479.136 1.87155C465.182 19.489 452.238 41.4398 437.497 68.1172C433.014 76.2307 428.717 84.4741 424.348 92.7098C414.885 110.559 404.5 129.329 390.526 141.987C376.379 154.797 362.06 160.336 348.22 166.806C332.067 174.387 314.854 183.048 296.714 194.581C290.385 198.615 283.938 203.038 277.524 207.838C265.603 216.715 253.564 226.8 242.618 237.846C229.504 251.087 218.328 265.143 207.222 277.609C184.442 302.979 162.306 322.793 144.447 346.706C139.113 353.843 134.155 361.302 129.77 369.338M685.689 -70.8526C675.471 -81.4523 656.451 -57.658 597.205 -53.6819C593.736 -53.4501 590.285 -53.4049 586.868 -53.241C575.141 -52.6814 563.6 -51.9807 552.951 -49.4021C521.241 -41.8564 500.57 -24.3449 479.678 0.825367C465.596 17.7882 452.418 39.2295 437.473 65.6836C432.965 73.6645 428.649 81.7795 424.281 89.894C414.815 107.48 404.58 125.946 391.098 138.869C377.451 151.946 363.667 158.425 350.29 165.73C334.677 174.287 318.059 183.801 300.482 195.849C294.35 200.062 288.094 204.621 281.851 209.509C270.256 218.547 258.46 228.625 247.575 239.482C234.534 252.494 223.136 266.104 211.7 278.064C188.239 302.414 165.064 320.853 145.996 343.65C140.301 350.455 134.964 357.6 130.198 365.364M685.07 -73.2702C675.875 -82.8102 657.974 -56.9714 598.046 -52.2974C594.615 -52.0291 591.204 -51.9432 587.829 -51.7511C576.217 -51.0915 564.832 -50.3616 554.292 -47.9451C522.847 -40.8598 501.677 -24.8745 480.223 -0.224734C466.022 16.0904 452.605 37.0182 437.452 63.2461C432.918 71.0944 428.584 79.081 424.213 87.0756C414.747 104.399 404.658 122.562 391.67 135.748C378.522 149.091 365.274 156.512 352.36 164.652C337.284 174.187 321.262 184.552 304.248 197.114C298.309 201.507 292.247 206.198 286.177 211.178C274.907 220.376 263.353 230.449 252.53 241.114C239.564 253.895 227.944 267.061 216.178 278.512C192.035 301.843 167.823 318.908 147.542 340.59C141.484 347.062 135.771 353.895 130.623 361.382M684.449 -75.6879C676.275 -84.1682 659.489 -56.3018 598.883 -50.9147C595.491 -50.6126 592.118 -50.4845 588.787 -50.2641C577.29 -49.5046 566.062 -48.7469 555.63 -46.4883C524.453 -39.8619 502.791 -25.3915 480.763 -1.27493C466.447 14.3995 452.786 34.8068 437.426 60.8099C432.867 68.5256 428.513 76.3823 424.143 84.2571C414.675 101.317 404.735 119.176 392.24 132.627C379.592 146.238 366.878 154.596 354.426 163.575C339.888 174.087 324.462 185.304 308.013 198.378C302.271 202.952 296.401 207.779 290.503 212.847C279.558 222.208 268.249 232.274 257.484 242.748C244.591 255.296 232.75 268.018 220.654 278.963C195.83 301.274 170.579 316.964 149.089 337.53C142.671 343.669 136.579 350.191 131.048 357.403M683.829 -78.107C676.678 -85.5276 661.004 -55.6517 599.721 -49.5304C596.366 -49.196 593.035 -49.0174 589.746 -48.7743C578.365 -47.8939 567.291 -47.1279 556.969 -45.03C526.058 -38.8612 503.917 -25.8959 481.306 -2.32235C466.88 12.717 452.973 32.6024 437.402 58.3737C432.821 65.9568 428.446 73.6852 424.076 81.4387C414.608 98.2369 404.813 115.792 392.812 129.506C380.664 143.384 368.485 152.683 356.495 162.498C342.495 173.985 327.665 186.055 311.779 199.643C306.233 204.397 300.554 209.359 294.828 214.516C284.211 224.038 273.143 234.096 262.438 244.381C249.62 256.699 237.555 268.977 225.132 279.414C199.626 300.705 173.338 315.022 150.636 334.471C143.856 340.278 137.388 346.487 131.473 353.424M683.209 -80.5235C677.078 -86.883 662.513 -55.0157 600.56 -48.1449C597.244 -47.7767 593.955 -47.556 590.705 -47.2861C579.441 -46.3071 568.524 -45.5104 558.308 -43.5746C527.664 -37.8648 505.052 -26.3864 481.848 -3.37409C467.315 11.04 453.16 30.3936 437.377 55.936C432.772 63.3878 428.377 70.9865 424.006 78.6174C414.535 95.1521 404.892 112.404 393.381 126.382C381.733 140.526 370.089 150.767 358.561 161.418C345.099 173.882 330.865 186.803 315.542 200.905C310.19 205.838 304.705 210.935 299.151 216.181C288.859 225.863 278.034 235.918 267.388 246.01C254.644 258.097 242.358 269.93 229.605 279.86C203.417 300.132 176.09 313.074 152.177 331.409C145.036 336.882 138.191 342.78 131.895 349.442M682.589 -82.9427C677.48 -88.2425 664.017 -54.3992 601.399 -46.7622C598.121 -46.3616 594.871 -46.0972 591.665 -45.7977C580.514 -44.7202 569.755 -43.8929 559.647 -42.1165C529.27 -36.8656 506.194 -26.8601 482.391 -4.42159C467.754 9.37566 453.35 28.1919 437.354 53.4996C432.726 60.8217 428.31 68.2892 423.937 75.8002C414.466 92.073 404.968 109.021 393.953 123.264C382.804 137.674 371.696 148.856 360.632 160.342C347.709 173.782 334.069 187.556 319.31 202.173C314.155 207.285 308.861 212.518 303.479 217.852C293.512 227.696 282.93 237.743 272.346 247.645C259.675 259.5 247.167 270.891 234.085 280.312C207.216 299.563 178.85 311.13 153.727 328.349C146.225 333.489 139.002 339.076 132.323 345.463M681.969 -85.3589C677.882 -89.5991 665.517 -53.8007 602.238 -45.3751C598.998 -44.9435 595.787 -44.6342 592.625 -44.3064C581.59 -43.1303 570.987 -42.2738 560.986 -40.6581C530.876 -35.8675 507.345 -27.3167 482.935 -5.47025C468.198 7.71851 453.545 25.989 437.332 51.0649C432.683 58.2558 428.244 65.5935 423.871 72.9832C414.398 88.9926 405.05 105.637 394.527 120.145C383.878 134.823 373.302 146.943 362.702 159.266C350.317 173.683 337.272 188.31 323.077 203.439C318.119 208.732 313.017 214.099 307.804 219.523C298.163 229.527 287.824 239.569 277.299 249.28C264.701 260.905 251.972 271.85 238.562 280.765C211.011 298.997 181.606 309.189 155.273 325.291C147.409 330.099 139.809 335.373 132.746 341.485M681.349 -87.778C678.284 -90.9585 667.008 -53.2218 603.075 -43.9936C599.872 -43.531 596.705 -43.1768 593.583 -42.8194C582.661 -41.5448 572.216 -40.6576 562.325 -39.2026C532.481 -34.8696 508.503 -27.7581 483.476 -6.52183C468.642 6.06682 453.74 23.7861 437.306 48.626C432.634 55.687 428.175 62.8907 423.801 70.162C414.328 85.9094 405.125 102.25 395.098 117.02C384.949 131.964 374.908 145.025 364.77 158.184C352.923 173.579 340.474 189.057 326.844 204.7C322.081 210.171 317.172 215.675 312.132 221.189C302.819 231.355 292.721 241.391 282.255 250.91C269.731 262.304 256.782 272.804 243.04 281.213C214.808 298.426 184.365 307.244 156.82 322.232C148.595 326.706 140.617 331.667 133.173 337.504M680.728 -90.1959C678.684 -92.3153 668.493 -52.6613 603.913 -42.6096C600.747 -42.1174 597.621 -41.7169 594.543 -41.3312C583.737 -39.958 573.449 -39.0401 563.663 -37.7458C534.086 -33.8718 509.666 -28.1802 484.018 -7.57089C469.087 4.42742 453.936 21.59 437.283 46.1896C432.591 53.1209 428.108 60.1934 423.733 67.3434C414.258 82.8274 405.205 98.864 395.67 113.899C386.02 129.109 376.515 143.112 366.839 157.107C355.531 173.478 343.677 189.808 330.61 205.964C326.043 211.616 321.326 217.254 316.457 222.857C307.468 233.184 297.615 243.213 287.211 252.542C274.76 263.705 261.588 273.762 247.518 281.662C218.604 297.854 187.123 305.299 158.367 319.17C149.78 323.312 141.425 327.96 133.599 333.524M680.108 -92.6123C679.086 -93.672 669.973 -52.1202 604.751 -41.2226C601.621 -40.6995 598.539 -40.2538 595.501 -39.8386C584.81 -38.3682 574.678 -37.4184 565.002 -36.2848C535.692 -32.8697 510.834 -28.5769 484.559 -8.61695C469.53 2.80076 454.164 19.4179 437.256 43.7561C432.552 50.5646 428.038 57.4989 423.663 64.5277C414.188 79.7496 405.28 95.4824 396.239 110.781C387.09 126.259 378.12 141.2 368.906 156.032C358.135 173.381 346.877 190.562 334.374 207.233C330.003 213.065 325.478 218.838 320.78 224.529C312.118 235.017 302.507 245.04 292.162 254.178C279.786 265.11 266.393 274.724 251.993 282.116C222.398 297.29 189.878 303.359 159.913 316.114C150.965 319.923 142.232 324.26 134.024 329.547M679.488 -95.0314C679.488 -95.0314 671.445 -51.6 605.591 -39.8397C539.736 -28.0794 497.617 -43.824 437.234 41.3186C395.509 100.155 369.603 169.353 325.108 226.195C306.801 249.581 283.517 269.921 256.472 282.564C226.195 296.717 192.638 301.413 161.46 313.052C152.15 316.529 143.042 320.552 134.449 325.565" stroke="white" stroke-width="0.197078" stroke-miterlimit="10"/>
</svg>
